<?xml version="1.0" standalone="no"?>
<!DOCTYPE svg PUBLIC "-//W3C//DTD SVG 20010904//EN"
 "http://www.w3.org/TR/2001/REC-SVG-20010904/DTD/svg10.dtd">
<svg version="1.0" xmlns="http://www.w3.org/2000/svg"
 width="300.000000pt" height="300.000000pt" viewBox="0 0 300.000000 300.000000"
 preserveAspectRatio="xMidYMid meet">
<metadata>
Created by potrace 1.14, written by Peter Selinger 2001-2017
</metadata>
<g transform="translate(0.000000,300.000000) scale(0.100000,-0.100000)"
fill="#000000" stroke="none">
<path d="M525 2270 c-57 -12 -95 -28 -132 -56 -71 -54 -89 -128 -91 -377 -1
-161 -4 -194 -20 -230 -22 -49 -67 -77 -126 -77 -34 0 -36 -1 -36 -35 0 -24 5
-35 15 -36 8 -1 18 -2 23 -3 4 -1 24 -5 44 -9 47 -10 85 -54 93 -110 4 -23 8
-125 9 -227 2 -142 6 -197 20 -236 31 -93 109 -148 232 -163 108 -13 118 -11
120 26 1 18 -2 33 -5 34 -3 0 -22 2 -42 4 -64 4 -93 16 -125 49 -39 40 -44 73
-48 306 -3 145 -6 171 -25 215 -27 60 -52 89 -110 123 l-43 25 34 18 c53 27
104 84 123 137 13 35 18 89 21 217 2 94 6 188 9 210 12 88 70 135 164 135 47
0 47 0 47 35 l0 35 -56 -1 c-30 -1 -73 -5 -95 -9z"/>
<path d="M2263 2246 l0 -34 57 -5 c100 -9 140 -43 154 -132 4 -22 7 -107 8
-190 2 -227 26 -298 124 -360 l46 -29 -23 -18 c-94 -72 -118 -103 -136 -171
-3 -12 -7 -103 -9 -203 -3 -105 -9 -199 -17 -224 -19 -68 -88 -107 -188 -110
-11 0 -16 -10 -16 -35 l0 -34 61 5 c141 11 200 35 253 100 49 62 55 92 58 319
4 295 15 316 178 334 4 1 7 17 7 36 0 33 -2 35 -34 35 -42 0 -80 14 -105 37
-37 37 -44 78 -46 281 -2 243 -11 287 -69 348 -47 49 -154 84 -262 84 -40 0
-41 -1 -41 -34z"/>
<path d="M1775 2117 c-22 -54 -132 -198 -150 -197 -3 0 -18 -6 -33 -14 -44
-23 -89 -28 -259 -30 -134 -1 -163 -4 -193 -20 -93 -50 -102 -127 -18 -152 40
-13 132 -11 208 5 99 19 114 21 173 22 65 1 107 -19 107 -51 0 -16 4 -18 22
-11 35 13 41 46 12 75 -54 53 -152 64 -284 31 -8 -2 -15 -4 -15 -5 0 -2 -57
-10 -112 -14 -62 -5 -89 10 -78 43 4 12 9 20 12 17 4 -3 13 -1 20 6 10 8 68
12 171 13 133 2 166 5 217 24 33 12 62 26 63 31 2 6 10 10 18 10 8 0 14 4 14
10 0 5 14 22 30 37 17 14 30 32 30 40 0 7 3 13 8 13 7 0 43 73 47 95 1 6 3 12
4 15 6 12 9 40 5 40 -3 0 -11 -15 -19 -33z"/>
<path d="M833 1530 c5 -75 25 -176 44 -220 3 -8 7 -17 8 -20 0 -3 14 -29 29
-59 34 -66 118 -152 171 -176 22 -9 49 -21 60 -26 50 -23 145 -33 295 -32 69
0 136 4 150 7 14 3 37 7 53 8 15 1 27 8 27 15 0 7 10 13 23 13 27 0 99 44 141
86 25 25 89 119 92 134 0 3 6 18 12 33 7 16 12 32 12 37 0 5 5 21 12 37 6 15
12 33 12 38 1 6 5 33 10 61 14 90 14 134 3 141 -7 4 -270 8 -585 8 l-574 0 5
-85z"/>
<path d="M2020 1551 c0 -11 -3 -26 -6 -35 -4 -11 0 -16 14 -16 29 0 53 -11 47
-20 -3 -5 -1 -11 5 -15 14 -9 12 -46 -5 -75 -8 -14 -14 -22 -15 -19 0 4 -16
-9 -36 -27 -19 -19 -41 -34 -49 -34 -7 0 -15 -10 -18 -22 -3 -13 -9 -34 -13
-47 -7 -23 -5 -23 61 13 37 20 80 49 95 64 35 36 62 81 55 92 -3 5 -1 12 5 15
7 4 7 12 2 18 -4 7 -8 21 -8 32 1 11 -7 29 -16 39 -48 52 -118 74 -118 37z"/>
<path d="M1345 972 c-1 -2 -132 -3 -289 -2 -185 0 -286 -3 -286 -9 0 -24 66
-44 149 -46 69 -1 86 -4 97 -20 13 -18 32 -19 392 -20 357 0 378 1 396 19 15
15 36 19 100 21 85 3 123 13 145 39 12 14 -20 16 -344 18 -196 2 -358 2 -360
0z"/>
</g>
</svg>
